<svg id="Layer_1" data-name="Layer 1" xmlns="http://www.w3.org/2000/svg" viewBox="0 0 686.16 235.65"><defs><style>.cls-1{fill:#fff;}.cls-2{fill:#ffd106;}.cls-3{fill:#21bab0;}.cls-4{fill:#ee4f97;}.cls-5{fill:#14a7df;}.cls-6{fill:#91c73e;}.cls-7{fill:#0279a0;}</style></defs><title>elastic-logo-reverse</title><path class="cls-1" d="M329.44,160.25l4.73-.49.32,9.62A233.66,233.66,0,0,1,302.71,172q-17.61,0-24.94-10.19t-7.33-31.7q0-42.87,34.06-42.87,16.47,0,24.62,9.21t8.15,28.93l-.66,9.29H282.82q0,13.53,4.89,20.05t17,6.52Q316.89,161.23,329.44,160.25ZM325,124.88q0-15-4.81-21.19T304.58,97.5q-10.83,0-16.3,6.52t-5.62,20.86Z"/><path class="cls-1" d="M354.31,171.87V63.69h12.23V171.87Z"/><path class="cls-1" d="M443.52,113.47v41.11c0,4.08,10.15,3.92,10.15,3.92l-.62,10.8c-8.59,0-15.7.71-20-3.42A71,71,0,0,1,403.75,172q-11.25,0-17.11-6.36t-5.87-18.25q0-11.91,6-17.53t18.91-6.92l25.59-2.45v-7q0-8.31-3.59-11.9T417.93,98l-32.12,0V87.23h31.31q13.85,0,20.13,6.36T443.52,113.47Zm-50.2,33.25q0,15,12.39,15A65.91,65.91,0,0,0,427.55,158l3.75-1.3v-26.9l-24.12,2.28q-7.33.66-10.6,4.24T393.32,146.72Z"/><path class="cls-1" d="M491.24,98.15q-17.78,0-17.77,12.39,0,5.7,4.08,8.07t18.58,4.89q14.5,2.52,20.54,7.09t6,17.11q0,12.56-8.07,18.42T491.08,172c-6.74,0-29.23-2.5-29.23-2.5l.65-10.59c12.93,1.25,22.27,2.17,28.58,2.17s11.1-1,14.42-3,5-5.38,5-10.1-1.41-7.93-4.24-9.62-9-3.29-18.58-4.81-16.35-3.75-20.37-6.68-6-8.37-6-16.3,2.79-13.8,8.39-17.61,12.58-5.7,20.95-5.7c6.62,0,29.62,1.68,29.62,1.68V99.57C508.11,99,498.19,98.15,491.24,98.15Z"/><path class="cls-1" d="M581.66,99.45H555.74v39q0,14,2,18.42t9.7,4.4l14.5-1,.82,10.11a112.08,112.08,0,0,1-16.63,1.79q-12.7,0-17.6-6.19t-4.89-23.64V99.45H532.11V88.86h11.57V63.92h12.06V88.86h25.92Z"/><path class="cls-1" d="M598.65,78V63.78h12.23V78Zm0,93.91V89.37h12.23v82.5Z"/><path class="cls-1" d="M663.83,87.23q5.38,0,18.26,2l3.91.48-.49,10a190.7,190.7,0,0,0-19.23-1.47q-13.86,0-18.83,6.6t-5,24.45q0,17.85,4.64,24.86t19.32,7l19.23-1.47.49,10.11Q671,172,663.51,172q-19.08,0-26.33-9.78t-7.25-33q0-23.22,7.82-32.6T663.83,87.23Z"/><path class="cls-1" d="M236.57,123.46a46.54,46.54,0,0,0-30.79-43.9A66.26,66.26,0,0,0,207,66.84,66.81,66.81,0,0,0,86,27.73,35.48,35.48,0,0,0,31,68.14,47.18,47.18,0,0,0,0,112.22a46.6,46.6,0,0,0,30.94,44A67.67,67.67,0,0,0,29.72,169a66.63,66.63,0,0,0,120.8,38.85,35.43,35.43,0,0,0,55-40.27,47.16,47.16,0,0,0,31-44.08"/><path class="cls-2" d="M93,101.49l51.76,23.6L197,79.33a57.6,57.6,0,0,0,1.13-11.48,58.38,58.38,0,0,0-106.54-33L82.9,79.91Z"/><path class="cls-3" d="M39.43,156.31a58.64,58.64,0,0,0,57.41,70.2,58.34,58.34,0,0,0,48.37-25.64L153.84,156l-11.51-22-52-23.69Z"/><path class="cls-4" d="M39.1,66.72,74.57,75.1l7.78-40.33A28,28,0,0,0,39.1,66.72"/><path class="cls-5" d="M36,75.17A39.51,39.51,0,0,0,9.15,112.33a39.11,39.11,0,0,0,25.17,36.55l49.77-45L75,84.37Z"/><path class="cls-6" d="M154.31,200.87A28,28,0,0,0,197.47,169L162,160.67Z"/><path class="cls-7" d="M161.52,151.38l39,9.13a39.49,39.49,0,0,0,26.87-37.16A39.06,39.06,0,0,0,202.2,86.86l-51,44.71Z"/></svg>